<svg aria-hidden="true" style="width:0;height:0;position:absolute;overflow:hidden" xmlns="http://www.w3.org/2000/svg"><defs><symbol id="envelope" viewBox="0 0 32 32"><path fill="#757575" style="fill:var(--color1,#757575)" d="M29.001 4.571h-26C1.346 4.571 0 5.851 0 7.428v17.143c0 1.577 1.346 2.857 3.001 2.857h26c1.65 0 2.999-1.28 2.999-2.857V7.428c0-1.577-1.346-2.857-3.001-2.857zm0 1.904c.135 0 .263.027.382.075L16 17.597 2.617 6.55c.113-.047.244-.074.381-.075h26zm0 19.05H2.978A.978.978 0 0 1 2 24.573V8.563l13.344 11.015a1.024 1.024 0 0 0 1.314-.002l-.002.001L30 8.562v16.009c0 .526-.448.953-1.001.953z"/></symbol><symbol id="facebook" viewBox="0 0 32 32"><path fill="#afb1b8" style="fill:var(--color2,#afb1b8)" d="M21.328 5.312h2.923V.224A36.478 36.478 0 0 0 20.144 0h-.157.008c-4.213 0-7.099 2.65-7.099 7.52V12H8.25v5.688h4.646V32h5.698V17.69h4.461l.707-5.688h-5.168V8.08c0-1.643.443-2.768 2.734-2.768z"/></symbol><symbol id="form-email" viewBox="0 0 32 32"><path d="M26.667 5.333H5.334A2.662 2.662 0 0 0 2.682 8l-.014 16c0 1.467 1.2 2.667 2.667 2.667h21.333c1.467 0 2.667-1.2 2.667-2.667V8c0-1.467-1.2-2.667-2.667-2.667zm-.534 5.668-9.426 5.892a1.343 1.343 0 0 1-1.421-.004l.006.003L5.866 11A1.133 1.133 0 1 1 7.07 9.083l-.004-.003 8.933 5.586 8.933-5.588a1.132 1.132 0 1 1 1.204 1.916l-.005.003z"/></symbol><symbol id="form-person" viewBox="0 0 32 32"><path d="M16 16a5.333 5.333 0 1 0 0-10.666A5.333 5.333 0 1 0 16 16zm0 2.667c-3.561 0-10.667 1.787-10.667 5.333v1.333c0 .732.599 1.333 1.333 1.333h18.667c.732 0 1.333-.601 1.333-1.333V24c0-3.547-7.108-5.333-10.667-5.333z"/></symbol><symbol id="form-phone" viewBox="0 0 32 32"><path d="m24.882 19.774-3.268-.373a2.552 2.552 0 0 0-2.11.732l-2.368 2.368c-3.669-1.894-6.585-4.81-8.427-8.372l-.051-.108 2.382-2.377a2.553 2.553 0 0 0 .733-2.122l.001.012-.373-3.243a2.578 2.578 0 0 0-2.557-2.276h-2.23c-1.454 0-2.663 1.209-2.574 2.663.683 10.987 9.468 19.76 20.444 20.443 1.452.089 2.663-1.12 2.663-2.574v-2.238a2.549 2.549 0 0 0-2.253-2.532l-.012-.001z"/></symbol><symbol id="instagram" viewBox="0 0 32 32"><path fill="#afb1b8" style="fill:var(--color2,#afb1b8)" d="M31.968 9.408c-.074-1.701-.349-2.869-.742-3.882a7.839 7.839 0 0 0-1.85-2.837l-.001-.001A7.906 7.906 0 0 0 26.597.861l-.054-.018C25.524.449 24.362.176 22.661.101 20.949.019 20.405 0 16.059 0c-4.344 0-4.888.019-6.595.094-1.699.074-2.869.349-3.88.742a7.847 7.847 0 0 0-2.839 1.85l-.001.001A7.9 7.9 0 0 0 .919 5.465l-.018.054C.506 6.538.232 7.7.157 9.401c-.082 1.712-.101 2.256-.101 6.602 0 4.344.019 4.888.094 6.595.075 1.701.35 2.869.744 3.882a7.915 7.915 0 0 0 1.849 2.837l.001.001c.8.813 1.77 1.443 2.832 1.843 1.019.395 2.182.67 3.882.744 1.707.075 2.251.094 6.595.094 4.346 0 4.89-.019 6.595-.094 1.701-.074 2.869-.349 3.882-.742a8.237 8.237 0 0 0 4.664-4.628l.019-.055c.394-1.019.669-2.182.744-3.882.075-1.707.093-2.251.093-6.595s-.006-4.888-.08-6.595zm-2.88 13.066c-.07 1.563-.333 2.406-.55 2.97a5.341 5.341 0 0 1-3.004 3.024l-.036.012c-.56.219-1.411.482-2.968.55-1.688.075-2.194.094-6.464.094-4.269 0-4.782-.019-6.464-.094-1.563-.069-2.406-.331-2.97-.55a4.953 4.953 0 0 1-1.836-1.192l-.001-.001a4.978 4.978 0 0 1-1.184-1.803L3.6 25.45c-.218-.563-.48-1.413-.549-2.97-.075-1.688-.094-2.195-.094-6.464 0-4.27.019-4.784.094-6.464.069-1.563.331-2.406.549-2.97a4.897 4.897 0 0 1 1.198-1.837l.002-.002a4.972 4.972 0 0 1 1.806-1.182l.034-.011c.56-.219 1.411-.48 2.968-.55 1.688-.074 2.195-.093 6.464-.093 4.275 0 4.782.019 6.464.093 1.563.069 2.406.331 2.97.55a4.91 4.91 0 0 1 1.837 1.194c.531.52.938 1.144 1.195 1.84.218.56.48 1.411.549 2.968.075 1.688.094 2.194.094 6.464 0 4.269-.019 4.768-.094 6.458z"/><path fill="#afb1b8" style="fill:var(--color2,#afb1b8)" d="M16.059 7.782a8.223 8.223 0 0 0-8.219 8.221 8.223 8.223 0 0 0 16.442.008v-.009a8.223 8.223 0 0 0-8.221-8.221zm0 13.552a5.333 5.333 0 0 1 .001-10.666h.001a5.334 5.334 0 1 1 0 10.668zM26.525 7.458a1.92 1.92 0 0 1-3.84 0 1.92 1.92 0 0 1 3.84 0z"/></symbol><symbol id="linkedin" viewBox="0 0 32 32"><path fill="#afb1b8" style="fill:var(--color2,#afb1b8)" d="M31.992 32H32V20.262c0-5.741-1.235-10.163-7.947-10.163-3.227 0-5.392 1.77-6.277 3.45h-.093v-2.914h-6.365v21.363h6.627V21.42c0-2.786.528-5.48 3.978-5.48 3.398 0 3.45 3.179 3.45 5.658V32h6.619zM.528 10.635h6.635V32H.528V10.635zM3.843 0A3.843 3.843 0 0 0 0 3.843c0 2.12 1.722 3.878 3.843 3.878 2.12 0 3.842-1.757 3.842-3.878S5.965.002 3.844 0z"/></symbol><symbol id="logo" viewBox="0 0 32 32"><path fill="#2f7889" style="fill:var(--color3,#2f7889)" d="M30.95 3.058c-.108-.705-.69-1.055-.69-1.055-.855.107-5.79 2.247-5.79 2.247l-.163 1.388-10.655 10.438c-.105.105-.09.282.033.398l1.685 1.685c.13.11.313.11.408-.003 0 0 .913-.317 1.992-1.53.72-.807.517-1.277.895-1.7l7.067-7.91 1.302.037a.618.618 0 0 0 .558-.315c.332-.595 1.055-1.848 1.547-2.378.427-.46.595-.4 1.163-.565.555-.165.73-.205.648-.738z"/><path fill="#fffde7" style="fill:var(--color4,#fffde7)" d="M14.195 15.525s-.905-1.03-1.828-.615c-1.232.555-.39 1.938-2.037 2.51-1.8.622-3.075 1.81-2.46 3.25.66 1.545 3.295 1.633 3.42 5.595.06 1.898 1.415 1.85 2.015 1.227 1.053-1.098.947-4.492 2.035-5.703s3.782-.9 4.76-3.155c0 0-1.675 1.683-3.803.023-1.008-.788-.995-2.1-.995-2.1l-1.107-1.033z"/><path fill="#c62828" style="fill:var(--color5,#c62828)" d="M16.81 13.575s.11.113-.21-.162c-.685-.588-1.152 1.49-2.213.438-1.402-1.185-.985-2.232.102-3.402.533-.572.762-.838.658-1.505-.088-.568-.617-.928-1.328-.928-.693.04-1.925.965-3.11 2.725-1.803 2.675-.947 4.095-2.825 5.525-1.875 1.427-6.018 1.933-6.303 5.553-.163 2.078.803 3.262 2.038 4.78.855 1.052 2.91 2.87 4.44 3.635s3.428 1.188 4.992.145c3.465-2.308 2.947-4.652 3.533-6.17.672-1.74 2.34-1.157 4.05-2.79 1.27-1.135 1.552-2.28 1.475-3.047-.082-.788-.777-1.61-1.43-1.505-.25-.117.025.617-.188 1.047-.538 1.093-1.4 1.73-2.543.83-.922-.727.16-2.593.16-2.593l-.715-.855-.585-1.72z"/><path fill="#f44336" style="fill:var(--color6,#f44336)" d="M16.275 13.04s.11.113-.21-.162c-.685-.588-2.092 1.297-3.15.245-.982-.977.438-2.492 1.485-3.512.9-.713.043-1.63-.575-1.595-.693.04-2.46.43-3.645 2.19-1.803 2.675-.947 4.095-2.825 5.525-1.51 1.147-3.917 1.59-5.435 3.612-.38.508-.68.745-.87 1.94-.162 2.078.802 3.262 2.038 4.78.855 1.052 2.91 2.87 4.44 3.635s3.225 1.188 4.793.145c3.465-2.308 2.845-4.933 3.43-6.453.673-1.74 2.79-1.18 4.5-2.81 1.13-1.078 1.407-1.977 1.33-2.745-.055-.55-.442-.797-.733-.933-.25-.117-.672.045-.885.477-.538 1.093-1.4 1.73-2.543.83-.922-.727.027-2.805.027-2.805l-1.172-2.365z"/><path fill="#fffde7" style="fill:var(--color4,#fffde7)" d="M13.685 15.14c-.188-.143-1.193-.78-2.065.023-.94.865-.175 2.047-1.662 2.275-1.883.29-3 1.545-2.385 2.985.66 1.545 3.595 1.872 3.72 5.837.06 1.898 1.387 1.82 2.015 1.227 1.453-1.375.613-4.413 2.035-5.703 1.228-1.113 3.088-.505 3.978-2.063.157-.275.168-.517-.21-.36-.695.29-1.563.438-2.51-.49-.773-.76-.635-1.813-.635-1.813s-2.103-1.785-2.28-1.92z"/><path fill="#82aec0" style="fill:var(--color7,#82aec0)" d="M13.317 23.305c.313.294.326.788.029 1.104s-.791.334-1.104.04c-.313-.294-.326-.788-.029-1.104s.791-.334 1.104-.04z"/><path fill="#2f7889" style="fill:var(--color3,#2f7889)" d="M12.213 23.348c.273-.302.795-.378 1.147-.087a.844.844 0 0 1 .307.587v.003a.877.877 0 0 1-.23.648.873.873 0 0 1-.63.273.852.852 0 0 1-.607-.27.849.849 0 0 1 .012-1.152zm0 0c-.14.15-.215.358-.197.558s.12.385.268.5c.303.242.74.172.97-.08a.723.723 0 0 0 .02-.975.712.712 0 0 0-.518-.235.738.738 0 0 0-.543.233z"/><path fill="#82aec0" style="fill:var(--color7,#82aec0)" d="M13.091 25.585c.264.248.274.665.024.931s-.667.282-.931.035c-.264-.248-.274-.665-.024-.931s.667-.282.931-.035z"/><path fill="#2f7889" style="fill:var(--color3,#2f7889)" d="M12.16 25.617a.727.727 0 0 1 .975-.08.733.733 0 0 1 .27.505.74.74 0 0 1-.742.793.727.727 0 0 1-.52-.238.727.727 0 0 1 .018-.98zm0 0a.612.612 0 0 0-.162.47.59.59 0 0 0 1.027.34c.195-.2.238-.56.025-.802-.102-.117-.26-.2-.43-.203s-.34.07-.46.195z"/><path fill="#f7cf92" style="fill:var(--color8,#f7cf92)" d="m25.7 6.388-1.6-1.712-10.723 10.928c-.105.105-.09.283.033.397l1.693 1.625c.13.11.313.11.408-.003l10.19-11.235z"/><path fill="#f7cf92" style="fill:var(--color8,#f7cf92)" d="m23.745 4.963-.073-.287c-.198-.625.168-.777.325-.835 1.01-.365 4.355-1.71 5.08-1.895.622-.157 1.56-.11 1.633.817.023.3-.198.427-.488.5-.48.118-.79.107-1.35.757-.477.553-1.195 1.732-1.512 2.292a.599.599 0 0 1-.523.305l-1.24-.117-1.852-1.537z"/><path fill="#82aec0" style="fill:var(--color7,#82aec0)" d="M12.092 16.145c.178.03.332.082.49.133.1.108.207.207.31.313l1.557 1.558c.05.157.102.313.135.488-.175-.032-.33-.085-.488-.135l-1.557-1.558c-.105-.102-.205-.21-.313-.31a2.94 2.94 0 0 1-.135-.488zm-1.924 1.928c.178.03.332.082.49.133.1.108.207.207.31.313l1.558 1.558c.05.157.102.313.135.488-.175-.032-.33-.085-.488-.135l-1.557-1.558c-.105-.102-.205-.21-.313-.31a2.831 2.831 0 0 1-.135-.488zM9.16 19.508c.16.082.293.177.428.275.063.133.135.262.2.392l.81 1.565.203.39c0 .165.002.33-.02.505-.158-.085-.29-.18-.425-.275l-.203-.39-.402-.782-.405-.782c-.068-.13-.133-.262-.205-.39-.002-.165-.005-.33.02-.508z"/><path fill="#2f7889" style="fill:var(--color3,#2f7889)" d="M5.405 22.565c-.067.073-.085.168-.037.212l3.32 3.055c.047.045.143.02.21-.052l1.125-1.175c.068-.073.085-.168.037-.212l-3.32-3.055c-.048-.045-.143-.02-.21.052l-1.125 1.175z"/><path fill="#ff7043" style="fill:var(--color9,#ff7043)" d="M10.125 12.813c-.203-.037-.313-.227-.232-.697.223-1.325 1.098-2.543 2.318-3.11.428-.2.825-.165.908.35.043.273-.105.537-.502.768-.89.52-1.738 1.28-1.995 2.277-.095.36-.27.453-.495.412z"/><path fill="#82aec0" style="fill:var(--color7,#82aec0)" d="M24.13 2.96c.248.178.347.465.22.641s-.43.175-.678-.003c-.248-.178-.347-.465-.22-.641s.43-.175.678.003zM25.132 2.594c.248.178.347.465.22.641s-.43.175-.678-.003c-.248-.178-.347-.465-.22-.641s.43-.175.678.003zM26.132 2.231c.248.178.347.465.22.641s-.43.175-.678-.003c-.248-.178-.347-.465-.22-.641s.43-.175.678.003zM27.134 1.865c.248.178.347.465.22.641s-.43.175-.678-.003c-.248-.178-.347-.465-.22-.641s.43-.175.678.003zM28.134 1.501c.248.178.347.465.22.641s-.43.175-.678-.003c-.248-.178-.347-.465-.22-.641s.43-.175.678.003zM29.138 1.137c.248.178.347.465.22.641s-.43.175-.678-.003c-.248-.178-.347-.465-.22-.641s.43-.175.678.003z"/></symbol><symbol id="menu-close" viewBox="0 0 32 32"><path d="m26.667 7.303-1.97-1.97-7.808 7.808-7.808-7.808-1.97 1.97 7.808 7.808-7.808 7.808 1.97 1.97 7.808-7.808 7.808 7.808 1.97-1.97-7.808-7.808 7.808-7.808z"/></symbol><symbol id="menu-open" viewBox="0 0 32 32"><path d="M6.4 11.734V9.6h19.2v2.134H6.4zm0 5.332h19.2v-2.133H6.4v2.133zm0 5.334h19.2v-2.134H6.4V22.4z"/></symbol><symbol id="send" viewBox="0 0 32 32"><path fill="#fff" style="fill:var(--color10,#fff)" d="M32 0 0 18l10.227 3.787L26 7 14.003 23.187l.009.003-.012-.003V32l5.735-6.691L27.002 28l4.999-28z"/></symbol><symbol id="smartphone" viewBox="0 0 32 32"><path fill="#757575" style="fill:var(--color1,#757575)" d="M24 0H8C6.11 0 4.571 1.346 4.571 3.001v25.998C4.571 30.656 6.109 32 8 32h16c1.89 0 3.429-1.346 3.429-3.001V3.001C27.429 1.346 25.891 0 24 0zM8 2h16c.631 0 1.143.448 1.143 1.001V24H6.857V2.999C6.857 2.45 7.369 2 8 2zm16 28H8c-.631 0-1.143-.448-1.143-1.001V26h18.286v3.001c0 .549-.512.999-1.143.999z"/><path fill="#757575" style="fill:var(--color1,#757575)" d="M9.952 27.291a.914.914 0 0 1 .001 1.416l-.002.001a1.257 1.257 0 0 1-1.62-.001l.002.002a.915.915 0 0 1-.002-1.416l.002-.001a1.257 1.257 0 0 1 1.62.001l-.002-.002z"/></symbol><symbol id="twitter" viewBox="0 0 32 32"><path fill="#afb1b8" style="fill:var(--color2,#afb1b8)" d="M32 6.078c-1.1.493-2.376.857-3.713 1.028l-.068.007a6.556 6.556 0 0 0 2.873-3.579l.013-.046a12.88 12.88 0 0 1-4.076 1.573l-.084.014A6.558 6.558 0 0 0 15.6 9.557v.004c0 .52.043 1.021.152 1.496-5.454-.266-10.28-2.88-13.522-6.861a6.524 6.524 0 0 0-.902 3.313v.001a6.57 6.57 0 0 0 2.914 5.451 6.453 6.453 0 0 1-2.994-.823l.033.017v.072a6.592 6.592 0 0 0 5.213 6.44l.043.008a6.403 6.403 0 0 1-1.662.215h-.061.003c-.419 0-.843-.024-1.242-.112.85 2.598 3.261 4.509 6.13 4.57a13.093 13.093 0 0 1-8.122 2.8H1.57h.001-.062c-.531 0-1.055-.034-1.569-.099l.061.006c2.826 1.846 6.287 2.944 10.004 2.944h.063-.003c12.072 0 18.672-10 18.672-18.669 0-.288-.01-.57-.024-.848a13.203 13.203 0 0 0 3.258-3.355l.03-.047z"/></symbol></defs></svg>