<svg aria-hidden="true" style="position: absolute; width: 0; height: 0; overflow: hidden;" version="1.1" xmlns="http://www.w3.org/2000/svg" xmlns:xlink="http://www.w3.org/1999/xlink">
<defs>
<symbol id="envelope" viewBox="0 0 32 32">
<path fill="#757575" style="fill: var(--color1, #757575)" d="M29.001 4.571h-26c-1.655 0-3.001 1.28-3.001 2.857v17.143c0 1.577 1.346 2.857 3.001 2.857h26c1.65 0 2.999-1.28 2.999-2.857v-17.143c0-1.577-1.346-2.857-3.001-2.857zM29.001 6.475c0.135 0 0.263 0.027 0.382 0.075l-13.383 11.047-13.383-11.047c0.113-0.047 0.244-0.074 0.381-0.075h26zM29.001 25.525h-26c-0.007 0-0.015 0-0.023 0-0.532 0-0.964-0.424-0.978-0.952l-0-0.001v-16.009l13.344 11.015c0.177 0.147 0.406 0.236 0.656 0.236s0.479-0.089 0.658-0.238l-0.002 0.001 13.344-11.015v16.009c0 0.526-0.448 0.953-1.001 0.953z"></path>
</symbol>
<symbol id="facebook" viewBox="0 0 32 32">
<path fill="#afb1b8" style="fill: var(--color2, #afb1b8)" d="M21.328 5.312h2.923v-5.088c-1.232-0.143-2.66-0.224-4.107-0.224-0.052 0-0.104 0-0.157 0l0.008-0c-4.213 0-7.099 2.65-7.099 7.52v4.48h-4.646v5.688h4.646v14.312h5.698v-14.31h4.461l0.707-5.688h-5.168v-3.922c0-1.643 0.443-2.768 2.734-2.768z"></path>
</symbol>
<symbol id="form-email" viewBox="0 0 32 32">
<path d="M26.667 5.333h-21.333c-1.467 0-2.652 1.2-2.652 2.667l-0.014 16c0 1.467 1.2 2.667 2.667 2.667h21.333c1.467 0 2.667-1.2 2.667-2.667v-16c0-1.467-1.2-2.667-2.667-2.667zM26.133 11.001l-9.426 5.892c-0.201 0.126-0.446 0.2-0.708 0.2s-0.506-0.075-0.713-0.204l0.006 0.003-9.426-5.892c-0.336-0.201-0.557-0.562-0.557-0.975 0-0.625 0.507-1.132 1.132-1.132 0.233 0 0.449 0.070 0.629 0.19l-0.004-0.003 8.933 5.586 8.933-5.588c0.176-0.118 0.392-0.188 0.624-0.188 0.625 0 1.132 0.507 1.132 1.132 0 0.413-0.221 0.775-0.552 0.972l-0.005 0.003z"></path>
</symbol>
<symbol id="form-person" viewBox="0 0 32 32">
<path d="M16 16c2.946 0 5.333-2.388 5.333-5.333s-2.388-5.333-5.333-5.333v0c-2.946 0-5.333 2.388-5.333 5.333s2.388 5.333 5.333 5.333v0zM16 18.667c-3.561 0-10.667 1.787-10.667 5.333v1.333c0 0.732 0.599 1.333 1.333 1.333h18.667c0.732 0 1.333-0.601 1.333-1.333v-1.333c0-3.547-7.108-5.333-10.667-5.333z"></path>
</symbol>
<symbol id="form-phone" viewBox="0 0 32 32">
<path d="M24.882 19.774l-3.268-0.373c-0.090-0.011-0.194-0.018-0.3-0.018-0.707 0-1.347 0.287-1.81 0.75l-2.368 2.368c-3.669-1.894-6.585-4.81-8.427-8.372l-0.051-0.108 2.382-2.377c0.464-0.463 0.752-1.104 0.752-1.812 0-0.105-0.006-0.209-0.019-0.31l0.001 0.012-0.373-3.243c-0.155-1.287-1.24-2.276-2.557-2.276-0.001 0-0.002 0-0.003 0h-2.227c-1.454 0-2.663 1.209-2.574 2.663 0.683 10.987 9.468 19.76 20.444 20.443 1.452 0.089 2.663-1.12 2.663-2.574v-2.224c0-0.004 0-0.009 0-0.014 0-1.308-0.985-2.386-2.253-2.532l-0.012-0.001z"></path>
</symbol>
<symbol id="instagram" viewBox="0 0 32 32">
<path fill="#afb1b8" style="fill: var(--color2, #afb1b8)" d="M31.968 9.408c-0.074-1.701-0.349-2.869-0.742-3.882-0.424-1.111-1.054-2.059-1.85-2.837l-0.001-0.001c-0.78-0.792-1.724-1.419-2.778-1.827l-0.054-0.018c-1.019-0.394-2.181-0.667-3.882-0.742-1.712-0.082-2.256-0.101-6.602-0.101-4.344 0-4.888 0.019-6.595 0.094-1.699 0.074-2.869 0.349-3.88 0.742-1.112 0.424-2.060 1.054-2.839 1.85l-0.001 0.001c-0.791 0.78-1.418 1.724-1.825 2.778l-0.018 0.054c-0.395 1.019-0.669 2.181-0.744 3.882-0.082 1.712-0.101 2.256-0.101 6.602 0 4.344 0.019 4.888 0.094 6.595 0.075 1.701 0.35 2.869 0.744 3.882 0.426 1.11 1.055 2.057 1.849 2.837l0.001 0.001c0.8 0.813 1.77 1.443 2.832 1.843 1.019 0.395 2.182 0.67 3.882 0.744 1.707 0.075 2.251 0.094 6.595 0.094 4.346 0 4.89-0.019 6.595-0.094 1.701-0.074 2.869-0.349 3.882-0.742 2.157-0.85 3.833-2.526 4.664-4.628l0.019-0.055c0.394-1.019 0.669-2.182 0.744-3.882 0.075-1.707 0.093-2.251 0.093-6.595s-0.006-4.888-0.080-6.595zM29.088 22.474c-0.070 1.563-0.333 2.406-0.55 2.97-0.552 1.399-1.64 2.486-3.004 3.024l-0.036 0.012c-0.56 0.219-1.411 0.482-2.968 0.55-1.688 0.075-2.194 0.094-6.464 0.094-4.269 0-4.782-0.019-6.464-0.094-1.563-0.069-2.406-0.331-2.97-0.55-0.721-0.269-1.334-0.676-1.836-1.192l-0.001-0.001c-0.517-0.503-0.924-1.117-1.184-1.803l-0.011-0.034c-0.218-0.563-0.48-1.413-0.549-2.97-0.075-1.688-0.094-2.195-0.094-6.464 0-4.27 0.019-4.784 0.094-6.464 0.069-1.563 0.331-2.406 0.549-2.97 0.269-0.722 0.678-1.337 1.198-1.837l0.002-0.002c0.504-0.517 1.119-0.923 1.806-1.182l0.034-0.011c0.56-0.219 1.411-0.48 2.968-0.55 1.688-0.074 2.195-0.093 6.464-0.093 4.275 0 4.782 0.019 6.464 0.093 1.563 0.069 2.406 0.331 2.97 0.55 0.693 0.256 1.325 0.662 1.837 1.194 0.531 0.52 0.938 1.144 1.195 1.84 0.218 0.56 0.48 1.411 0.549 2.968 0.075 1.688 0.094 2.194 0.094 6.464 0 4.269-0.019 4.768-0.094 6.458z"></path>
<path fill="#afb1b8" style="fill: var(--color2, #afb1b8)" d="M16.059 7.782c-4.539 0.002-8.218 3.682-8.219 8.221v0c0.091 4.471 3.737 8.060 8.221 8.060s8.13-3.589 8.221-8.052l0-0.009c-0.001-4.54-3.681-8.22-8.221-8.221h-0zM16.059 21.334c-2.945-0-5.332-2.388-5.332-5.333s2.388-5.333 5.333-5.333c0 0 0.001 0 0.001 0h-0c2.946 0 5.334 2.388 5.334 5.334s-2.388 5.334-5.334 5.334v0zM26.525 7.458c0 1.060-0.86 1.92-1.92 1.92s-1.92-0.86-1.92-1.92v0c0-1.060 0.86-1.92 1.92-1.92s1.92 0.86 1.92 1.92v0z"></path>
</symbol>
<symbol id="linkedin" viewBox="0 0 32 32">
<path fill="#afb1b8" style="fill: var(--color2, #afb1b8)" d="M31.992 32h0.008v-11.738c0-5.741-1.235-10.163-7.947-10.163-3.227 0-5.392 1.77-6.277 3.45h-0.093v-2.914h-6.365v21.363h6.627v-10.578c0-2.786 0.528-5.48 3.978-5.48 3.398 0 3.45 3.179 3.45 5.658v10.402h6.619zM0.528 10.635h6.635v21.365h-6.635v-21.365zM3.843 0c-2.123 0-3.843 1.721-3.843 3.843v0c0 2.12 1.722 3.878 3.843 3.878 2.12 0 3.842-1.757 3.842-3.878s-1.72-3.841-3.841-3.843h-0z"></path>
</symbol>
<symbol id="logo" viewBox="0 0 32 32">
<path fill="#2f7889" style="fill: var(--color3, #2f7889)" d="M30.95 3.058c-0.108-0.705-0.69-1.055-0.69-1.055-0.855 0.107-5.79 2.247-5.79 2.247l-0.163 1.388-10.655 10.438c-0.105 0.105-0.090 0.282 0.033 0.398l1.685 1.685c0.13 0.11 0.313 0.11 0.408-0.003 0 0 0.913-0.317 1.992-1.53 0.72-0.807 0.517-1.277 0.895-1.7 2.828-3.165 6.76-7.565 7.067-7.91l1.302 0.037c0.23 0.008 0.445-0.115 0.558-0.315 0.332-0.595 1.055-1.848 1.547-2.378 0.427-0.46 0.595-0.4 1.163-0.565 0.555-0.165 0.73-0.205 0.648-0.738z"></path>
<path fill="#fffde7" style="fill: var(--color4, #fffde7)" d="M14.195 15.525s-0.905-1.030-1.828-0.615c-1.232 0.555-0.39 1.938-2.037 2.51-1.8 0.622-3.075 1.81-2.46 3.25 0.66 1.545 3.295 1.633 3.42 5.595 0.060 1.898 1.415 1.85 2.015 1.227 1.053-1.098 0.947-4.492 2.035-5.703s3.782-0.9 4.76-3.155c0 0-1.675 1.683-3.803 0.023-1.008-0.788-0.995-2.1-0.995-2.1l-1.107-1.033z"></path>
<path fill="#c62828" style="fill: var(--color5, #c62828)" d="M16.81 13.575s0.11 0.113-0.21-0.162c-0.685-0.588-1.152 1.49-2.213 0.438-1.402-1.185-0.985-2.232 0.102-3.402 0.533-0.572 0.762-0.838 0.658-1.505-0.088-0.568-0.617-0.928-1.328-0.928-0.693 0.040-1.925 0.965-3.11 2.725-1.803 2.675-0.947 4.095-2.825 5.525-1.875 1.427-6.018 1.933-6.303 5.553-0.163 2.078 0.803 3.262 2.038 4.78 0.855 1.052 2.91 2.87 4.44 3.635s3.428 1.188 4.992 0.145c3.465-2.308 2.947-4.652 3.533-6.17 0.672-1.74 2.34-1.157 4.050-2.79 1.27-1.135 1.552-2.28 1.475-3.047-0.082-0.788-0.777-1.61-1.43-1.505-0.25-0.117 0.025 0.617-0.188 1.047-0.538 1.093-1.4 1.73-2.543 0.83-0.922-0.727 0.16-2.593 0.16-2.593l-0.715-0.855-0.585-1.72z"></path>
<path fill="#f44336" style="fill: var(--color6, #f44336)" d="M16.275 13.040s0.11 0.113-0.21-0.162c-0.685-0.588-2.092 1.297-3.15 0.245-0.982-0.977 0.438-2.492 1.485-3.512 0.9-0.713 0.043-1.63-0.575-1.595-0.693 0.040-2.46 0.43-3.645 2.19-1.803 2.675-0.947 4.095-2.825 5.525-1.51 1.147-3.917 1.59-5.435 3.612-0.38 0.508-0.68 0.745-0.87 1.94-0.162 2.078 0.802 3.262 2.038 4.78 0.855 1.052 2.91 2.87 4.44 3.635s3.225 1.188 4.793 0.145c3.465-2.308 2.845-4.933 3.43-6.453 0.673-1.74 2.79-1.18 4.5-2.81 1.13-1.078 1.407-1.977 1.33-2.745-0.055-0.55-0.442-0.797-0.733-0.933-0.25-0.117-0.672 0.045-0.885 0.477-0.538 1.093-1.4 1.73-2.543 0.83-0.922-0.727 0.027-2.805 0.027-2.805l-1.172-2.365z"></path>
<path fill="#fffde7" style="fill: var(--color4, #fffde7)" d="M13.685 15.14c-0.188-0.143-1.193-0.78-2.065 0.023-0.94 0.865-0.175 2.047-1.662 2.275-1.883 0.29-3 1.545-2.385 2.985 0.66 1.545 3.595 1.872 3.72 5.837 0.060 1.898 1.387 1.82 2.015 1.227 1.453-1.375 0.613-4.413 2.035-5.703 1.228-1.113 3.088-0.505 3.978-2.063 0.157-0.275 0.168-0.517-0.21-0.36-0.695 0.29-1.563 0.438-2.51-0.49-0.773-0.76-0.635-1.813-0.635-1.813s-2.103-1.785-2.28-1.92z"></path>
<path fill="#82aec0" style="fill: var(--color7, #82aec0)" d="M13.317 23.305c0.313 0.294 0.326 0.788 0.029 1.104s-0.791 0.334-1.104 0.040c-0.313-0.294-0.326-0.788-0.029-1.104s0.791-0.334 1.104-0.040z"></path>
<path fill="#2f7889" style="fill: var(--color3, #2f7889)" d="M12.213 23.348c0.273-0.302 0.795-0.378 1.147-0.087 0.173 0.143 0.289 0.351 0.307 0.587l0 0.003c0.018 0.233-0.070 0.473-0.23 0.648-0.162 0.172-0.398 0.275-0.63 0.273-0.235-0.003-0.457-0.108-0.607-0.27-0.315-0.335-0.273-0.863 0.012-1.152zM12.213 23.348c-0.14 0.15-0.215 0.358-0.197 0.558s0.12 0.385 0.268 0.5c0.303 0.242 0.74 0.172 0.97-0.080 0.24-0.245 0.283-0.688 0.020-0.975-0.125-0.14-0.315-0.233-0.518-0.235-0.197-0.005-0.4 0.082-0.543 0.233z"></path>
<path fill="#82aec0" style="fill: var(--color7, #82aec0)" d="M13.091 25.585c0.264 0.248 0.274 0.665 0.024 0.931s-0.667 0.282-0.931 0.035c-0.264-0.248-0.274-0.665-0.024-0.931s0.667-0.282 0.931-0.035z"></path>
<path fill="#2f7889" style="fill: var(--color3, #2f7889)" d="M12.16 25.617c0.23-0.255 0.67-0.325 0.975-0.080 0.148 0.117 0.252 0.302 0.27 0.505 0.018 0.2-0.057 0.41-0.197 0.56-0.14 0.148-0.345 0.238-0.545 0.233-0.203-0.003-0.393-0.098-0.52-0.238-0.265-0.29-0.223-0.735 0.018-0.98zM12.16 25.617c-0.117 0.128-0.18 0.302-0.162 0.47 0.015 0.17 0.105 0.32 0.23 0.415 0.255 0.198 0.613 0.133 0.797-0.075 0.195-0.2 0.238-0.56 0.025-0.802-0.102-0.117-0.26-0.2-0.43-0.203s-0.34 0.070-0.46 0.195z"></path>
<path fill="#f7cf92" style="fill: var(--color8, #f7cf92)" d="M25.7 6.388l-1.6-1.712-10.723 10.928c-0.105 0.105-0.090 0.283 0.033 0.397l1.693 1.625c0.13 0.11 0.313 0.11 0.408-0.003l10.19-11.235z"></path>
<path fill="#f7cf92" style="fill: var(--color8, #f7cf92)" d="M23.745 4.963l-0.073-0.287c-0.198-0.625 0.168-0.777 0.325-0.835 1.010-0.365 4.355-1.71 5.080-1.895 0.622-0.157 1.56-0.11 1.633 0.817 0.023 0.3-0.198 0.427-0.488 0.5-0.48 0.118-0.79 0.107-1.35 0.757-0.477 0.553-1.195 1.732-1.512 2.292-0.105 0.188-0.302 0.303-0.523 0.305l-1.24-0.117-1.852-1.537z"></path>
<path fill="#82aec0" style="fill: var(--color7, #82aec0)" d="M12.092 16.145c0.178 0.030 0.332 0.082 0.49 0.133 0.1 0.108 0.207 0.207 0.31 0.313l1.557 1.558c0.050 0.157 0.102 0.313 0.135 0.488-0.175-0.032-0.33-0.085-0.488-0.135l-1.557-1.558c-0.105-0.102-0.205-0.21-0.313-0.31-0.053-0.152-0.105-0.31-0.135-0.488zM10.168 18.073c0.178 0.030 0.332 0.082 0.49 0.133 0.1 0.108 0.207 0.207 0.31 0.313l1.558 1.558c0.050 0.157 0.102 0.313 0.135 0.488-0.175-0.032-0.33-0.085-0.488-0.135l-1.557-1.558c-0.105-0.102-0.205-0.21-0.313-0.31-0.055-0.155-0.105-0.31-0.135-0.488zM9.16 19.508c0.16 0.082 0.293 0.177 0.428 0.275 0.063 0.133 0.135 0.262 0.2 0.392l0.81 1.565 0.203 0.39c0 0.165 0.002 0.33-0.020 0.505-0.158-0.085-0.29-0.18-0.425-0.275l-0.203-0.39-0.402-0.782-0.405-0.782c-0.068-0.13-0.133-0.262-0.205-0.39-0.002-0.165-0.005-0.33 0.020-0.508z"></path>
<path fill="#2f7889" style="fill: var(--color3, #2f7889)" d="M5.405 22.565c-0.067 0.073-0.085 0.168-0.037 0.212l3.32 3.055c0.047 0.045 0.143 0.020 0.21-0.052l1.125-1.175c0.068-0.073 0.085-0.168 0.037-0.212l-3.32-3.055c-0.048-0.045-0.143-0.020-0.21 0.052l-1.125 1.175z"></path>
<path fill="#ff7043" style="fill: var(--color9, #ff7043)" d="M10.125 12.813c-0.203-0.037-0.313-0.227-0.232-0.697 0.223-1.325 1.098-2.543 2.318-3.11 0.428-0.2 0.825-0.165 0.908 0.35 0.043 0.273-0.105 0.537-0.502 0.768-0.89 0.52-1.738 1.28-1.995 2.277-0.095 0.36-0.27 0.453-0.495 0.412z"></path>
<path fill="#82aec0" style="fill: var(--color7, #82aec0)" d="M24.13 2.96c0.248 0.178 0.347 0.465 0.22 0.641s-0.43 0.175-0.678-0.003c-0.248-0.178-0.347-0.465-0.22-0.641s0.43-0.175 0.678 0.003z"></path>
<path fill="#82aec0" style="fill: var(--color7, #82aec0)" d="M25.132 2.594c0.248 0.178 0.347 0.465 0.22 0.641s-0.43 0.175-0.678-0.003c-0.248-0.178-0.347-0.465-0.22-0.641s0.43-0.175 0.678 0.003z"></path>
<path fill="#82aec0" style="fill: var(--color7, #82aec0)" d="M26.132 2.231c0.248 0.178 0.347 0.465 0.22 0.641s-0.43 0.175-0.678-0.003c-0.248-0.178-0.347-0.465-0.22-0.641s0.43-0.175 0.678 0.003z"></path>
<path fill="#82aec0" style="fill: var(--color7, #82aec0)" d="M27.134 1.865c0.248 0.178 0.347 0.465 0.22 0.641s-0.43 0.175-0.678-0.003c-0.248-0.178-0.347-0.465-0.22-0.641s0.43-0.175 0.678 0.003z"></path>
<path fill="#82aec0" style="fill: var(--color7, #82aec0)" d="M28.134 1.501c0.248 0.178 0.347 0.465 0.22 0.641s-0.43 0.175-0.678-0.003c-0.248-0.178-0.347-0.465-0.22-0.641s0.43-0.175 0.678 0.003z"></path>
<path fill="#82aec0" style="fill: var(--color7, #82aec0)" d="M29.138 1.137c0.248 0.178 0.347 0.465 0.22 0.641s-0.43 0.175-0.678-0.003c-0.248-0.178-0.347-0.465-0.22-0.641s0.43-0.175 0.678 0.003z"></path>
</symbol>
<symbol id="menu-close" viewBox="0 0 32 32">
<path d="M26.667 7.303l-1.97-1.97-7.808 7.808-7.808-7.808-1.97 1.97 7.808 7.808-7.808 7.808 1.97 1.97 7.808-7.808 7.808 7.808 1.97-1.97-7.808-7.808 7.808-7.808z"></path>
</symbol>
<symbol id="menu-open" viewBox="0 0 32 32">
<path d="M6.4 11.734v-2.134h19.2v2.134h-19.2zM6.4 17.066h19.2v-2.133h-19.2v2.133zM6.4 22.4h19.2v-2.134h-19.2v2.134z"></path>
</symbol>
<symbol id="send" viewBox="0 0 32 32">
<path fill="#fff" style="fill: var(--color10, #fff)" d="M32 0l-32 18 10.227 3.787 15.773-14.787-11.997 16.187 0.009 0.003-0.012-0.003v8.813l5.735-6.691 7.267 2.691 4.999-28z"></path>
</symbol>
<symbol id="smartphone" viewBox="0 0 32 32">
<path fill="#757575" style="fill: var(--color1, #757575)" d="M24 0h-16c-1.89 0-3.429 1.346-3.429 3.001v25.998c0 1.657 1.538 3.001 3.429 3.001h16c1.89 0 3.429-1.346 3.429-3.001v-25.998c0-1.655-1.538-3.001-3.429-3.001zM8 2h16c0.631 0 1.143 0.448 1.143 1.001v20.999h-18.286v-21.001c0-0.549 0.512-0.999 1.143-0.999zM24 30h-16c-0.631 0-1.143-0.448-1.143-1.001v-2.999h18.286v3.001c0 0.549-0.512 0.999-1.143 0.999z"></path>
<path fill="#757575" style="fill: var(--color1, #757575)" d="M9.952 27.291c0.206 0.169 0.336 0.424 0.336 0.709s-0.13 0.54-0.335 0.707l-0.002 0.001c-0.217 0.183-0.5 0.294-0.809 0.294s-0.592-0.111-0.811-0.295l0.002 0.002c-0.206-0.169-0.337-0.424-0.337-0.709s0.13-0.54 0.335-0.707l0.002-0.001c0.217-0.183 0.5-0.294 0.809-0.294s0.592 0.111 0.811 0.295l-0.002-0.002z"></path>
</symbol>
<symbol id="twitter" viewBox="0 0 32 32">
<path fill="#afb1b8" style="fill: var(--color2, #afb1b8)" d="M32 6.078c-1.1 0.493-2.376 0.857-3.713 1.028l-0.068 0.007c1.36-0.817 2.382-2.078 2.873-3.579l0.013-0.046c-1.197 0.722-2.591 1.273-4.076 1.573l-0.084 0.014c-1.2-1.279-2.9-2.076-4.787-2.076-3.622 0-6.558 2.936-6.558 6.558 0 0.001 0 0.003 0 0.004v-0c0 0.52 0.043 1.021 0.152 1.496-5.454-0.266-10.28-2.88-13.522-6.861-0.564 0.949-0.899 2.092-0.902 3.313v0.001c0 2.272 1.171 4.286 2.914 5.451-1.091-0.030-2.107-0.325-2.994-0.823l0.033 0.017v0.072c0.003 3.165 2.236 5.807 5.213 6.44l0.043 0.008c-0.499 0.136-1.071 0.215-1.662 0.215-0.020 0-0.041-0-0.061-0l0.003 0c-0.419 0-0.843-0.024-1.242-0.112 0.85 2.598 3.261 4.509 6.13 4.57-2.215 1.746-5.045 2.8-8.122 2.8-0.004 0-0.008 0-0.013 0h0.001c-0.018 0-0.040 0-0.062 0-0.531 0-1.055-0.034-1.569-0.099l0.061 0.006c2.826 1.846 6.287 2.944 10.004 2.944 0.021 0 0.042-0 0.063-0h-0.003c12.072 0 18.672-10 18.672-18.669 0-0.288-0.010-0.57-0.024-0.848 1.299-0.936 2.39-2.064 3.258-3.355l0.030-0.047z"></path>
</symbol>
</defs>
</svg>
